<svg id="Layer_1" enable-background="new 0 0 512.003 512.003" height="512" viewBox="0 0 512.003 512.003" width="512" xmlns="http://www.w3.org/2000/svg"><path d="m398.993 231.632c-32.475-59.389-38.074-116.236-37.053-153.469 1.111-40.523 10.08-67.31 10.17-67.575 1.427-4.178-.8-8.723-4.977-10.153-4.178-1.435-8.729.794-10.161 4.974-.397 1.159-9.746 28.885-11.008 71.661-1.16 39.362 4.662 99.461 38.989 162.238 3.601 6.585 6.77 13.42 9.515 20.486l-21.643 5.173c-74.441 17.796-155.274 18.737-233.65 0l-21.643-5.173c2.745-7.065 5.914-13.9 9.515-20.486 34.327-62.777 40.149-122.876 38.989-162.238-1.262-42.776-10.61-70.502-11.008-71.661-1.43-4.177-5.974-6.4-10.151-4.973-4.178 1.427-6.409 5.973-4.986 10.152.09.266 9.059 27.052 10.17 67.575 1.021 37.232-4.578 94.08-37.053 153.469-30.938 56.579-29.541 122.669-12.625 184.642 14.405 52.77 36.575 90.258 37.512 91.827 1.443 2.42 4.053 3.901 6.87 3.901h222.471c2.817 0 5.427-1.481 6.87-3.901.937-1.569 23.106-39.058 37.512-91.827 16.863-61.778 18.362-127.974-12.625-184.642zm-22.446 48.898 23.068-5.514c2.49 8.597 4.382 17.503 5.695 26.684l-16.107 2.584c-4.362.7-7.331 4.805-6.632 9.167.7 4.362 4.793 7.327 9.167 6.632l15.236-2.445c.479 7.122.663 13.664.4 22.12-47.462 10.216-122.069 30.95-151.373 69.979-29.282-38.999-103.801-59.739-151.373-69.979-.261-8.382-.08-14.984.4-22.119 59.263 8.421 120.405 25.298 215.769 13.485 4.385-.543 7.499-4.538 6.956-8.923-.543-4.384-4.521-7.492-8.923-6.956-99.405 12.313-164.406-7.888-212.139-13.544 1.313-9.181 3.205-18.087 5.695-26.684 27.846 6.656 48.56 12.098 82.918 16.118 60.621 7.093 122.3 3.485 181.243-10.605zm-270.983 75.811c77.656 17.219 127.938 42.119 142.438 70.632v69.029h-98.563c-21.798-39.773-39.57-91.622-43.875-139.661zm257.001 139.662h-98.563v-69.029c14.5-28.512 64.782-53.412 142.438-70.632-4.303 47.998-22.073 99.878-43.875 139.661z"/><path d="m254.441 235.253c4.644.994 9.561-2.575 9.561-7.84 0-3.795-2.681-7.099-6.44-7.841-4.241-.865-8.541 1.886-9.399 6.28-.898 4.141 1.83 8.523 6.278 9.401z"/><path d="m94.379 139.173c-2.452 3.675-1.462 8.642 2.214 11.095 3.659 2.444 8.632 1.476 11.095-2.214l15.232-22.824c1.838-2.753 1.789-6.354-.121-9.057l-15.232-21.557c-2.549-3.609-7.543-4.468-11.149-1.917-3.608 2.55-4.467 7.542-1.917 11.15l6.144 8.694h-33.644c-4.418 0-8 3.582-8 8s3.582 8 8 8h34.471z"/><path d="m445.001 114.302h-34.471l7.093-10.629c2.452-3.675 1.462-8.642-2.214-11.095-3.677-2.455-8.643-1.461-11.095 2.214l-15.232 22.824c-1.838 2.753-1.789 6.354.121 9.057l15.232 21.557c2.553 3.615 7.549 4.464 11.149 1.917 3.608-2.55 4.467-7.542 1.917-11.15l-6.144-8.694h33.643c4.418 0 8-3.582 8-8s-3.581-8.001-7.999-8.001z"/><path d="m170.726 177.073c5.459 1.759 11.571 4.023 21.473 6.653 4.262 1.131 8.649-1.4 9.786-5.679 1.134-4.271-1.409-8.651-5.679-9.786-9.27-2.461-15.015-4.593-20.545-6.376-4.2-1.389-8.722.882-10.111 5.076-1.391 4.195.883 8.721 5.076 10.112z"/><path d="m259.559 191.975c4.68 0 13.998-.426 22.789-1.347 4.395-.46 7.584-4.396 7.123-8.789-.461-4.395-4.397-7.598-8.789-7.123-7.021.735-14.164 1.159-21.235 1.26-4.418.063-7.948 3.695-7.885 8.113.062 4.379 3.631 7.886 7.997 7.886z"/><path d="m214.419 188.529c11.055 1.861 21.867 2.77 23.168 2.77 4.143 0 7.649-3.194 7.968-7.395.335-4.405-2.965-8.248-7.371-8.582-7.063-.537-14.165-1.401-21.108-2.57-4.349-.736-8.483 2.204-9.217 6.561s2.203 8.483 6.56 9.216z"/><path d="m304.818 187.233c7.439-1.475 14.867-3.312 22.076-5.458 4.234-1.261 6.645-5.715 5.384-9.95-1.261-4.233-5.711-6.648-9.95-5.384-6.731 2.004-13.67 3.72-20.623 5.098-4.333.86-7.15 5.07-6.291 9.404.86 4.334 5.071 7.152 9.404 6.29z"/><path d="m355.598 309.783c-4.54 0-8.013 3.668-8.013 8 0 4.418 3.595 8 8.013 8s8-3.582 8-8-3.582-8-8-8z"/></svg>