<?xml version="1.0" encoding="iso-8859-1"?>
<!-- Generator: Adobe Illustrator 19.0.0, SVG Export Plug-In . SVG Version: 6.00 Build 0)  -->
<svg version="1.1" id="Capa_1" xmlns="http://www.w3.org/2000/svg" xmlns:xlink="http://www.w3.org/1999/xlink" x="0px" y="0px"
	 viewBox="0 0 368 368" style="enable-background:new 0 0 368 368;" xml:space="preserve">
<g>
	<g>
		<path d="M312,0H56C25.12,0,0,25.12,0,56v256c0,30.88,25.128,56,56,56v-0.728C62.536,368,74.416,368,96,368h216
			c30.88,0,56-25.128,56-56V56C368,25.12,342.872,0,312,0z M352,312c0,22.056-17.944,40-40,40c0,0-254.232,0-256,0
			c-22.056,0-40-17.944-40-40V56c0-22.056,17.944-40,40-40h256c22.056,0,40,17.944,40,40V312z"/>
	</g>
</g>
<g>
	<g>
		<path d="M184,64c-66.168,0-120,53.832-120,120s53.832,120,120,120s120-53.832,120-120S250.168,64,184,64z M184,288
			c-57.344,0-104-46.656-104-104S126.656,80,184,80s104,46.656,104,104S241.344,288,184,288z"/>
	</g>
</g>
<g>
	<g>
		<path d="M183.624,111.624c-39.904,0-72.376,32.472-72.376,72.376s32.472,72.376,72.376,72.376
			C223.528,256.376,256,223.904,256,184S223.528,111.624,183.624,111.624z M183.624,240.376c-31.088,0-56.376-25.288-56.376-56.376
			s25.288-56.376,56.376-56.376S240,152.912,240,184S214.712,240.376,183.624,240.376z"/>
	</g>
</g>
<g>
	<g>
		<circle cx="304" cy="64" r="16"/>
	</g>
</g>
<g>
</g>
<g>
</g>
<g>
</g>
<g>
</g>
<g>
</g>
<g>
</g>
<g>
</g>
<g>
</g>
<g>
</g>
<g>
</g>
<g>
</g>
<g>
</g>
<g>
</g>
<g>
</g>
<g>
</g>
</svg>
